<svg xmlns="http://www.w3.org/2000/svg" viewBox="0 0 820.000000 680.000000" fill="currentColor" role="img" aria-label="cmotion">
<title>cmotion</title>
<g transform="translate(0.000000,680.000000) scale(0.100000,-0.100000)"
fill="currentColor" stroke="none">
<path d="M5520 6593 c-570 -20 -1105 -192 -1563 -501 -71 -48 -143 -96 -160
-107 -31 -19 -54 -20 -542 -25 -563 -6 -556 -5 -590 -70 -31 -61 -8 -150 47
-182 18 -10 162 -14 675 -18 638 -5 652 -5 679 -26 51 -38 68 -70 68 -129 0
-59 -17 -91 -68 -129 -27 -21 -40 -21 -794 -27 -422 -4 -902 -12 -1067 -17
-165 -6 -437 -14 -605 -18 -252 -5 -309 -9 -330 -22 -79 -50 -63 -157 28 -181
23 -6 366 -10 882 -11 864 -1 1071 -5 1103 -22 48 -25 72 -123 45 -182 -28
-63 3 -61 -733 -66 -670 -5 -670 -5 -712 -29 -109 -62 -136 -207 -56 -301 55
-66 42 -64 539 -70 451 -5 451 -5 488 -34 66 -50 83 -125 45 -203 -40 -83 16
-77 -870 -83 -785 -5 -785 -5 -822 -30 -107 -72 -97 -226 18 -293 15 -9 288
-13 1032 -17 1012 -5 1012 -5 1048 -40 81 -79 62 -196 -42 -249 -15 -8 -166
-11 -500 -11 -477 0 -479 0 -523 -22 -138 -70 -141 -272 -6 -350 40 -23 46
-23 396 -28 398 -6 390 -4 422 -77 23 -52 19 -97 -13 -137 -42 -53 -5 -51
-921 -56 -850 -5 -857 -5 -885 -26 -71 -53 -90 -122 -53 -194 42 -83 -7 -78
895 -86 786 -7 797 -8 828 -28 99 -68 100 -188 3 -260 -26 -20 -43 -21 -426
-26 -385 -5 -400 -6 -427 -26 -38 -29 -53 -60 -53 -118 0 -43 4 -53 38 -86 48
-48 23 -46 907 -49 677 -3 691 -3 724 -24 106 -64 79 -235 -41 -265 -29 -7
-313 -11 -838 -11 -437 0 -952 -3 -1145 -7 -350 -7 -350 -7 -382 -40 -58 -57
-40 -153 34 -182 15 -6 177 -18 358 -27 333 -16 741 -36 1090 -55 105 -5 345
-17 533 -25 244 -11 354 -20 378 -30 73 -30 100 -143 48 -204 -47 -56 -41 -56
-447 -61 -379 -5 -379 -5 -413 -42 -55 -61 -44 -138 25 -185 34 -23 34 -23
505 -23 353 0 484 -3 521 -13 28 -7 99 -43 159 -81 367 -231 743 -368 1181
-433 190 -27 603 -25 797 5 692 107 1281 411 1791 925 143 144 161 171 160
239 -1 84 -27 113 -233 256 -102 70 -309 215 -460 322 -151 106 -291 199 -310
206 -84 31 -131 12 -250 -100 -222 -210 -489 -348 -810 -418 -156 -33 -495
-33 -655 1 -438 93 -800 338 -1048 709 -619 926 -216 2228 808 2607 589 218
1260 78 1711 -357 51 -48 104 -92 119 -98 42 -16 112 -12 153 10 20 11 241
171 491 357 499 371 496 369 495 468 -1 63 -10 80 -94 180 -576 687 -1480
1089 -2380 1058z"/><path d="M2225 5907 c-41 -35 -46 -103 -11 -144 51 -61 142 -48 172 23 42 101
-79 192 -161 121z"/><path d="M233 4640 c-31 -18 -33 -23 -33 -74 0 -48 3 -57 31 -80 42 -36 89
-35 131 3 94 84 -20 218 -129 151z"/><path d="M679 4645 c-55 -30 -61 -110 -13 -156 26 -24 26 -24 401 -24 375 0
375 0 404 33 44 50 30 131 -27 152 -43 17 -734 12 -765 -5z"/><path d="M5305 4145 c-5 -2 -22 -6 -37 -9 -38 -9 -96 -62 -113 -104 -13 -29
-15 -143 -15 -715 0 -664 0 -682 20 -723 38 -78 141 -122 224 -94 21 7 128 67
239 134 111 67 351 212 532 321 182 110 341 211 353 225 35 36 52 85 52 145 0
66 -44 136 -110 176 -52 31 -746 450 -930 562 -115 70 -180 95 -215 82z"/><path d="M236 3409 c-48 -42 -50 -92 -5 -135 30 -29 30 -29 774 -32 464 -1
752 1 768 7 62 24 81 112 34 159 -27 27 -27 27 -782 30 -754 2 -754 2 -789
-29z"/><path d="M345 2201 c-65 -28 -82 -118 -32 -168 63 -63 177 -17 177 72 0 67
-83 123 -145 96z"/><path d="M847 2201 c-70 -5 -81 -9 -103 -34 -34 -40 -32 -90 5 -128 29 -29 29
-29 466 -29 436 0 436 0 460 24 52 52 37 134 -30 162 -36 15 -617 18 -798 5z"/><path d="M2370 967 c-14 -7 -33 -29 -43 -50 -52 -106 85 -197 164 -109 77 87
-17 211 -121 159z"/>
</g>
</svg>
